<svg width="84" height="84" xmlns="http://www.w3.org/2000/svg">

 <g>
  <title>background</title>
  <rect fill="none" id="canvas_background" height="86" width="86" y="-1" x="-1"/>
 </g>
 <g>
  <title>Layer 1</title>
  <text id="svg_2" font-family="'Montserrat-Regular'" transform="matrix(1,0,0,1,-78.3398,-117.0002) "/>
  <text id="svg_3" transform="matrix(1,0,0,1,19.0703,-117.0002) "/>
  <text id="svg_9" transform="matrix(1,0,0,1,6.1953,-21.0002) "/>
  <text id="svg_13" transform="matrix(1,0,0,1,100.7249,-117.0002) "/>
  <text id="svg_17" transform="matrix(1,0,0,1,199.0654,-117.0002) "/>
  <text id="svg_21" transform="matrix(1,0,0,1,295.4355,-117.0002) "/>
  <text id="svg_25" transform="matrix(1,0,0,1,393.75,-117.0002) "/>
  <text id="svg_29" transform="matrix(1,0,0,1,-74.77,-21.0002) "/>
  <text id="svg_32" transform="matrix(1,0,0,1,92.0503,-21.0002) "/>
  <text id="svg_36" transform="matrix(1,0,0,1,213.25,-21.0002) "/>
  <text id="svg_40" font-family="'Montserrat-Regular'" transform="matrix(1,0,0,1,308.46,-21.0002) "/>
  <text id="svg_41" transform="matrix(1,0,0,1,405.6152,-21.0002) "/>
  <text id="svg_44" transform="matrix(1,0,0,1,-86.8447,74.9998) "/>
  <text id="svg_50" transform="matrix(1,0,0,1,11.415,74.9998) "/>
  <text id="svg_54" transform="matrix(1,0,0,1,103.5254,74.9998) "/>
  <text id="svg_58" transform="matrix(1,0,0,1,199.2451,74.9998) "/>
  <text id="svg_61" transform="matrix(1,0,0,1,303.3799,74.9998) "/>
  <text id="svg_67" transform="matrix(1,0,0,1,399.4551,74.9998) "/>
  <text id="svg_71" transform="matrix(1,0,0,1,-83.8896,170.9998) "/>
  <text id="svg_76" font-family="'Montserrat-Regular'" transform="matrix(1,0,0,1,14.5654,170.9998) "/>
  <text id="svg_77" transform="matrix(1,0,0,1,110.835,170.9998) "/>
  <text id="svg_82" transform="matrix(1,0,0,1,212.6099,170.9998) "/>
  <text id="svg_85" transform="matrix(1,0,0,1,310.2998,170.9998) "/>
  <text id="svg_89" transform="matrix(1,0,0,1,400.8901,170.9998) "/>
  <text id="svg_92" font-family="'Montserrat-Regular'" transform="matrix(1,0,0,1,-89.5347,266.9998) "/>
  <text id="svg_93" transform="matrix(1,0,0,1,0.4053,266.9998) "/>
  <text id="svg_98" transform="matrix(1,0,0,1,90.4351,266.9998) "/>
  <text id="svg_109" font-family="'Montserrat-Regular'" transform="matrix(1,0,0,1,213.2549,266.9998) "/>
  <text id="svg_110" transform="matrix(1,0,0,1,292.6655,266.9998) "/>
  <text id="svg_115" font-family="'Montserrat-Regular'" transform="matrix(1,0,0,1,397.2202,266.9998) "/>
  <text id="svg_116" transform="matrix(1,0,0,1,-98.2148,362.9998) "/>
  <text id="svg_119" font-family="'Montserrat-Regular'" transform="matrix(1,0,0,1,20.4751,362.9998) "/>
  <text id="svg_120" transform="matrix(1,0,0,1,111.3799,362.9998) "/>
  <text id="svg_128" transform="matrix(1,0,0,1,207.3799,362.9998) "/>
  <text id="svg_136" transform="matrix(1,0,0,1,303.3799,362.9998) "/>
  <text id="svg_144" transform="matrix(1,0,0,1,399.3799,362.9998) "/>
  <ellipse ry="37" rx="37" id="svg_155" cy="41.999999" cx="41.999998" stroke-opacity="null" stroke-width="null" stroke="null" fill="#56ffaa"/>
  <path id="svg_153" d="m39.159956,28l-24,0c-0.552,0 -1,0.448 -1,1l0,26c0,0.552 0.448,1 1,1l4,0l16,0l4,0c0.552,0 1,-0.448 1,-1l0,-26c0,-0.552 -0.448,-1 -1,-1zm-19,26l0,-7c0,-1.59 1.244,-2.896 2.81,-2.994c0.062,0.07 0.129,0.133 0.193,0.199c0.071,0.074 0.139,0.15 0.213,0.22c0.074,0.07 0.151,0.133 0.227,0.198c0.08,0.069 0.159,0.141 0.242,0.205c0.07,0.054 0.144,0.102 0.216,0.153c0.095,0.067 0.188,0.136 0.286,0.197c0.064,0.04 0.13,0.073 0.195,0.11c0.11,0.063 0.219,0.126 0.332,0.181c0.06,0.029 0.121,0.051 0.181,0.078c0.121,0.053 0.242,0.107 0.366,0.151c0.062,0.022 0.126,0.037 0.189,0.057c0.124,0.039 0.248,0.079 0.375,0.109c0.084,0.02 0.169,0.03 0.254,0.045c0.108,0.02 0.215,0.043 0.325,0.056c0.198,0.023 0.396,0.035 0.596,0.035s0.398,-0.012 0.595,-0.035c0.11,-0.013 0.217,-0.036 0.325,-0.056c0.085,-0.015 0.17,-0.026 0.254,-0.045c0.127,-0.03 0.251,-0.07 0.375,-0.109c0.063,-0.02 0.127,-0.035 0.189,-0.057c0.125,-0.044 0.245,-0.098 0.366,-0.151c0.06,-0.026 0.122,-0.049 0.181,-0.078c0.113,-0.055 0.223,-0.118 0.332,-0.181c0.065,-0.037 0.131,-0.07 0.195,-0.11c0.098,-0.061 0.191,-0.13 0.286,-0.197c0.072,-0.051 0.145,-0.099 0.216,-0.153c0.083,-0.065 0.162,-0.136 0.242,-0.205c0.076,-0.066 0.154,-0.128 0.227,-0.198c0.074,-0.07 0.142,-0.146 0.213,-0.22c0.064,-0.067 0.131,-0.129 0.193,-0.199c1.567,0.098 2.811,1.404 2.811,2.994l0,7l-14,0zm9.904,-11.583c-0.182,0.24 -0.378,0.454 -0.586,0.642c-0.01,0.009 -0.019,0.021 -0.029,0.03c-0.2,0.177 -0.413,0.322 -0.632,0.448c-0.027,0.015 -0.05,0.038 -0.077,0.052c-0.207,0.113 -0.424,0.191 -0.644,0.258c-0.042,0.013 -0.081,0.037 -0.123,0.048c-0.265,0.069 -0.537,0.105 -0.813,0.105s-0.548,-0.036 -0.812,-0.104c-0.043,-0.011 -0.081,-0.035 -0.123,-0.048c-0.22,-0.067 -0.438,-0.145 -0.644,-0.258c-0.027,-0.015 -0.05,-0.037 -0.077,-0.052c-0.219,-0.127 -0.433,-0.271 -0.632,-0.448c-0.01,-0.009 -0.019,-0.021 -0.029,-0.03c-0.208,-0.188 -0.405,-0.402 -0.586,-0.642c-0.676,-0.897 -1.097,-2.094 -1.097,-3.418c0,-2.757 1.794,-5 4,-5s4,2.243 4,5c0,1.324 -0.421,2.521 -1.096,3.417zm8.096,11.583l-2,0l0,-7c0,-2.294 -1.561,-4.211 -3.671,-4.798c0.426,-0.961 0.671,-2.048 0.671,-3.202c0,-3.86 -2.691,-7 -6,-7s-6,3.14 -6,7c0,1.154 0.245,2.241 0.671,3.202c-2.11,0.587 -3.671,2.504 -3.671,4.798l0,7l-2,0l0,-24l22,0l0,24z"/>
  <path id="svg_154" d="m66.43998,28l-24,0c-0.552,0 -1,0.448 -1,1l0,26c0,0.552 0.448,1 1,1l4,0l16,0l4,0c0.552,0 1,-0.448 1,-1l0,-26c0,-0.552 -0.448,-1 -1,-1zm-19,26l0,-7c0,-1.59 1.244,-2.896 2.81,-2.994c0.062,0.07 0.129,0.133 0.193,0.199c0.071,0.074 0.139,0.15 0.213,0.22c0.074,0.07 0.151,0.133 0.227,0.198c0.08,0.069 0.159,0.141 0.242,0.205c0.07,0.054 0.144,0.102 0.216,0.153c0.095,0.067 0.188,0.136 0.286,0.197c0.064,0.04 0.13,0.073 0.195,0.11c0.11,0.063 0.219,0.126 0.332,0.181c0.06,0.029 0.121,0.051 0.181,0.078c0.121,0.053 0.242,0.107 0.366,0.151c0.062,0.022 0.126,0.037 0.189,0.057c0.124,0.039 0.248,0.079 0.375,0.109c0.084,0.02 0.169,0.03 0.254,0.045c0.108,0.02 0.215,0.043 0.325,0.056c0.198,0.023 0.396,0.035 0.596,0.035s0.398,-0.012 0.595,-0.035c0.11,-0.013 0.217,-0.036 0.325,-0.056c0.085,-0.015 0.17,-0.026 0.254,-0.045c0.127,-0.03 0.251,-0.07 0.375,-0.109c0.063,-0.02 0.127,-0.035 0.189,-0.057c0.125,-0.044 0.245,-0.098 0.366,-0.151c0.06,-0.026 0.122,-0.049 0.181,-0.078c0.113,-0.055 0.223,-0.118 0.332,-0.181c0.065,-0.037 0.131,-0.07 0.195,-0.11c0.098,-0.061 0.191,-0.13 0.286,-0.197c0.072,-0.051 0.145,-0.099 0.216,-0.153c0.083,-0.065 0.162,-0.136 0.242,-0.205c0.076,-0.066 0.154,-0.128 0.227,-0.198c0.074,-0.07 0.142,-0.146 0.213,-0.22c0.064,-0.067 0.131,-0.129 0.193,-0.199c1.567,0.098 2.811,1.404 2.811,2.994l0,7l-14,0zm9.904,-11.583c-0.182,0.24 -0.378,0.454 -0.586,0.642c-0.01,0.009 -0.019,0.021 -0.029,0.03c-0.2,0.177 -0.413,0.322 -0.632,0.448c-0.027,0.015 -0.05,0.038 -0.077,0.052c-0.207,0.113 -0.424,0.191 -0.644,0.258c-0.042,0.013 -0.081,0.037 -0.123,0.048c-0.265,0.069 -0.537,0.105 -0.813,0.105s-0.548,-0.036 -0.812,-0.104c-0.043,-0.011 -0.081,-0.035 -0.123,-0.048c-0.22,-0.067 -0.438,-0.145 -0.644,-0.258c-0.027,-0.015 -0.05,-0.037 -0.077,-0.052c-0.219,-0.127 -0.433,-0.271 -0.632,-0.448c-0.01,-0.009 -0.019,-0.021 -0.029,-0.03c-0.208,-0.188 -0.405,-0.402 -0.586,-0.642c-0.676,-0.897 -1.097,-2.094 -1.097,-3.418c0,-2.757 1.794,-5 4,-5s4,2.243 4,5c0,1.324 -0.421,2.521 -1.096,3.417zm8.096,11.583l-2,0l0,-7c0,-2.294 -1.561,-4.211 -3.671,-4.798c0.426,-0.961 0.671,-2.048 0.671,-3.202c0,-3.86 -2.691,-7 -6,-7s-6,3.14 -6,7c0,1.154 0.245,2.241 0.671,3.202c-2.11,0.587 -3.671,2.504 -3.671,4.798l0,7l-2,0l0,-24l22,0l0,24z"/>
 </g>
</svg>